<?xml version="1.0" encoding="iso-8859-1"?>
<!-- Generator: Adobe Illustrator 18.0.0, SVG Export Plug-In . SVG Version: 6.00 Build 0)  -->
<!DOCTYPE svg PUBLIC "-//W3C//DTD SVG 1.1//EN" "http://www.w3.org/Graphics/SVG/1.1/DTD/svg11.dtd">
<svg version="1.1" id="Capa_1" xmlns="http://www.w3.org/2000/svg" xmlns:xlink="http://www.w3.org/1999/xlink" x="0px" y="0px"
	 viewBox="0 0 460 460" style="enable-background:new 0 0 460 460;" xml:space="preserve">
<g id="XMLID_77_">
	<path id="XMLID_79_" d="M355.249,262.855l-159.207-54.532l-70.609-41.998l23.882-96.745c2.912-11.796-4.29-23.718-16.086-26.631
		c-11.792-2.912-23.719,4.289-26.631,16.086L78.806,171.62c-2.322,9.407,1.784,19.226,10.112,24.18l70.495,41.93
		c-1.035,2.578,1.215-6.697-28.243,122.742H22c-12.15,0-22,9.849-22,22s9.849,22,22,22h126.726c10.269,0,19.172-7.105,21.451-17.117
		l15.008-65.943l45.033,15.425l2.524-15.912c2.569-16.193,15.599-26.642,24.508-28.434l73.845-14.861l-70.356,32.199
		c-5.607,2.567-9.562,7.768-10.529,13.866l-5.268,33.218l-6.262,39.479c-1.667,10.506,5.989,20.542,17.014,21.265
		c9.533,0.617,17.897-6.205,19.375-15.479c0.001-0.005,0.002-0.009,0.003-0.013l9.983-62.941l0,0l63.713-29.16l-47.303,38.596
		l-1.893,11.931l19.869,6.806c13.517,4.63,28.228-2.575,32.858-16.092l19.042-55.593
		C375.971,282.196,368.766,267.485,355.249,262.855z"/>
	<circle id="XMLID_78_" cx="416.75" cy="359.262" r="43.238"/>
</g>
<g>
</g>
<g>
</g>
<g>
</g>
<g>
</g>
<g>
</g>
<g>
</g>
<g>
</g>
<g>
</g>
<g>
</g>
<g>
</g>
<g>
</g>
<g>
</g>
<g>
</g>
<g>
</g>
<g>
</g>
</svg>
